<mxfile host="app.diagrams.net" agent="Mozilla/5.0 (Windows NT 10.0; Win64; x64) AppleWebKit/537.36 (KHTML, like Gecko) Chrome/126.0.0.0 YaBrowser/24.7.0.0 Safari/537.36" version="24.7.13">
  <diagram name="Страница — 1" id="9RAW0U6VBFOoRO0kCPcA">
    <mxGraphModel dx="699" dy="1909" grid="1" gridSize="10" guides="1" tooltips="1" connect="1" arrows="1" fold="1" page="1" pageScale="1" pageWidth="827" pageHeight="1169" math="0" shadow="0">
      <root>
        <mxCell id="0" />
        <mxCell id="1" parent="0" />
        <mxCell id="GMgN1Cl_ILHEnfedxMWd-1" style="edgeStyle=orthogonalEdgeStyle;rounded=0;orthogonalLoop=1;jettySize=auto;html=1;entryX=0;entryY=0.5;entryDx=0;entryDy=0;dashed=1;" edge="1" parent="1" source="GMgN1Cl_ILHEnfedxMWd-3" target="GMgN1Cl_ILHEnfedxMWd-9">
          <mxGeometry relative="1" as="geometry" />
        </mxCell>
        <mxCell id="GMgN1Cl_ILHEnfedxMWd-2" style="edgeStyle=orthogonalEdgeStyle;rounded=0;orthogonalLoop=1;jettySize=auto;html=1;exitX=0;exitY=0.5;exitDx=0;exitDy=0;dashed=1;" edge="1" parent="1" source="GMgN1Cl_ILHEnfedxMWd-3">
          <mxGeometry relative="1" as="geometry">
            <mxPoint x="300" y="420" as="targetPoint" />
          </mxGeometry>
        </mxCell>
        <mxCell id="GMgN1Cl_ILHEnfedxMWd-3" value="ValueValidator" style="swimlane;whiteSpace=wrap;html=1;" vertex="1" parent="1">
          <mxGeometry x="380" y="320" width="200" height="200" as="geometry" />
        </mxCell>
        <mxCell id="GMgN1Cl_ILHEnfedxMWd-4" value="+AssertStringOnLength(string, int, string): void" style="text;html=1;align=center;verticalAlign=middle;whiteSpace=wrap;rounded=0;fontStyle=4" vertex="1" parent="GMgN1Cl_ILHEnfedxMWd-3">
          <mxGeometry x="10" y="85" width="180" height="30" as="geometry" />
        </mxCell>
        <mxCell id="GMgN1Cl_ILHEnfedxMWd-5" value="Item" style="swimlane;whiteSpace=wrap;html=1;" vertex="1" parent="1">
          <mxGeometry x="100" y="320" width="200" height="200" as="geometry" />
        </mxCell>
        <mxCell id="GMgN1Cl_ILHEnfedxMWd-6" value="&lt;u&gt;-_idCounter: int&lt;/u&gt;&lt;div&gt;-_id: int&lt;/div&gt;&lt;div&gt;-_name: string&lt;/div&gt;&lt;div&gt;-_info: string&lt;/div&gt;&lt;div&gt;-_cost: int&lt;/div&gt;" style="text;html=1;align=left;verticalAlign=middle;whiteSpace=wrap;rounded=0;" vertex="1" parent="GMgN1Cl_ILHEnfedxMWd-5">
          <mxGeometry y="20" width="200" height="80" as="geometry" />
        </mxCell>
        <mxCell id="GMgN1Cl_ILHEnfedxMWd-7" value="+ID {get; private set;}(): int&lt;div&gt;+Name {get; set;}(): string&lt;/div&gt;&lt;div&gt;+Info {get; set;}(): string&lt;/div&gt;&lt;div&gt;+Cost {get; set;}(): string&lt;/div&gt;" style="text;html=1;align=left;verticalAlign=middle;whiteSpace=wrap;rounded=0;" vertex="1" parent="GMgN1Cl_ILHEnfedxMWd-5">
          <mxGeometry y="110" width="200" height="80" as="geometry" />
        </mxCell>
        <mxCell id="GMgN1Cl_ILHEnfedxMWd-8" value="" style="endArrow=none;html=1;rounded=0;exitX=0;exitY=0.5;exitDx=0;exitDy=0;entryX=1;entryY=0.5;entryDx=0;entryDy=0;" edge="1" parent="1" source="GMgN1Cl_ILHEnfedxMWd-5" target="GMgN1Cl_ILHEnfedxMWd-5">
          <mxGeometry width="50" height="50" relative="1" as="geometry">
            <mxPoint x="130" y="460" as="sourcePoint" />
            <mxPoint x="180" y="410" as="targetPoint" />
          </mxGeometry>
        </mxCell>
        <mxCell id="GMgN1Cl_ILHEnfedxMWd-9" value="Customer" style="swimlane;whiteSpace=wrap;html=1;" vertex="1" parent="1">
          <mxGeometry x="660" y="320" width="200" height="200" as="geometry" />
        </mxCell>
        <mxCell id="GMgN1Cl_ILHEnfedxMWd-10" value="&lt;u&gt;-_idCounter: int&lt;/u&gt;&lt;div&gt;-_id: int&lt;/div&gt;&lt;div&gt;-_fullName: string&lt;/div&gt;&lt;div&gt;-_adress: string&lt;/div&gt;" style="text;html=1;align=left;verticalAlign=middle;whiteSpace=wrap;rounded=0;" vertex="1" parent="GMgN1Cl_ILHEnfedxMWd-9">
          <mxGeometry y="20" width="200" height="80" as="geometry" />
        </mxCell>
        <mxCell id="GMgN1Cl_ILHEnfedxMWd-11" value="+ID {get; private set;}(): int&lt;div&gt;+FullName {get; set;}(): string&lt;/div&gt;&lt;div&gt;+Adress {get; set;}(): string&lt;/div&gt;&lt;div&gt;&lt;br&gt;&lt;/div&gt;" style="text;html=1;align=left;verticalAlign=middle;whiteSpace=wrap;rounded=0;" vertex="1" parent="GMgN1Cl_ILHEnfedxMWd-9">
          <mxGeometry y="110" width="200" height="80" as="geometry" />
        </mxCell>
        <mxCell id="GMgN1Cl_ILHEnfedxMWd-12" value="" style="endArrow=none;html=1;rounded=0;exitX=0;exitY=0.5;exitDx=0;exitDy=0;entryX=1;entryY=0.5;entryDx=0;entryDy=0;" edge="1" parent="1" source="GMgN1Cl_ILHEnfedxMWd-9" target="GMgN1Cl_ILHEnfedxMWd-9">
          <mxGeometry width="50" height="50" relative="1" as="geometry">
            <mxPoint x="690" y="460" as="sourcePoint" />
            <mxPoint x="740" y="410" as="targetPoint" />
          </mxGeometry>
        </mxCell>
      </root>
    </mxGraphModel>
  </diagram>
</mxfile>
